<svg xmlns="http://www.w3.org/2000/svg" viewBox="117.91250610351562 56.100006103515625 339.1750030517578 462.8000011444092"> <svg xmlns="http://www.w3.org/2000/svg" xmlns:xlink="http://www.w3.org/1999/xlink" version="1.1" id="pppp_1" x="187.91250610351562" y="126.10000610351562" viewBox="114.88999938964844 55.310001373291016 770.219970703125 889.3800048828125" xml:space="preserve" height="230" width="199.1750030517578" preserveAspectRatio="xMinYMin" enable-background="new 0 0 1000 1000" style="overflow: visible;"><polygon class="st0" points="206.04,669.72 206.04,330.28 500,160.56 793.96,330.28 793.96,564.04 885.11,616.81 885.11,277.65    500,55.31 114.89,277.65 114.89,722.35 408.84,892.06 408.84,786.81  " style="fill: #3F63C8; fill-opacity: 1;"></polygon><polygon class="st1" points="793.96,669.36 793.96,669.72 591.15,786.81 591.15,321.93 500,273 500,755.68 500,839.43 500,874.97    500,944.69 500,944.69 885.11,722.35 885.11,722.13  " style="fill: #DE3A3A; fill-opacity: 1;"></polygon></svg> <svg y="436.1000061035156" viewBox="0.6700000166893005 6.230000019073486 164.0500030517578 12.80000114440918" x="205.47500610351562" height="12.80000114440918" width="164.0500030517578" style="overflow: visible;"><g fill="#DE3A3A" fill-opacity="1" style=""><path d="M0.67 12.62Q0.67 10.78 1.52 9.32Q2.38 7.87 3.84 7.05Q5.31 6.23 7.06 6.23L7.06 6.23Q9.05 6.23 10.61 7.21Q12.17 8.19 12.87 9.99L12.87 9.99L10.40 9.99Q9.92 9.00 9.05 8.51Q8.19 8.03 7.06 8.03L7.06 8.03Q5.81 8.03 4.84 8.59Q3.87 9.14 3.32 10.19Q2.77 11.23 2.77 12.62L2.77 12.62Q2.77 14.00 3.32 15.05Q3.87 16.09 4.84 16.66Q5.81 17.23 7.06 17.23L7.06 17.23Q8.19 17.23 9.05 16.74Q9.92 16.25 10.40 15.26L10.40 15.26L12.87 15.26Q12.17 17.06 10.61 18.04Q9.05 19.01 7.06 19.01L7.06 19.01Q5.29 19.01 3.83 18.19Q2.38 17.37 1.52 15.91Q0.67 14.45 0.67 12.62L0.67 12.62ZM20.97 19.03Q19.22 19.03 17.76 18.21Q16.29 17.39 15.44 15.92Q14.58 14.45 14.58 12.62L14.58 12.62Q14.58 10.78 15.44 9.32Q16.29 7.87 17.76 7.05Q19.22 6.23 20.97 6.23L20.97 6.23Q22.73 6.23 24.20 7.05Q25.67 7.87 26.51 9.32Q27.36 10.78 27.36 12.62L27.36 12.62Q27.36 14.45 26.51 15.92Q25.67 17.39 24.20 18.21Q22.73 19.03 20.97 19.03L20.97 19.03ZM20.97 17.24Q22.21 17.24 23.18 16.68Q24.16 16.11 24.71 15.06Q25.25 14.00 25.25 12.62L25.25 12.62Q25.25 11.23 24.71 10.19Q24.16 9.14 23.18 8.59Q22.21 8.03 20.97 8.03L20.97 8.03Q19.73 8.03 18.76 8.59Q17.78 9.14 17.24 10.19Q16.69 11.23 16.69 12.62L16.69 12.62Q16.69 14.00 17.24 15.06Q17.78 16.11 18.76 16.68Q19.73 17.24 20.97 17.24L20.97 17.24ZM39.65 6.37L39.65 18.90L37.60 18.90L31.43 9.56L31.43 18.90L29.38 18.90L29.38 6.37L31.43 6.37L37.60 15.70L37.60 6.37L39.65 6.37ZM46.48 19.03Q45.22 19.03 44.21 18.59Q43.20 18.14 42.62 17.33Q42.05 16.52 42.05 15.44L42.05 15.44L44.24 15.44Q44.32 16.25 44.88 16.78Q45.45 17.30 46.48 17.30L46.48 17.30Q47.54 17.30 48.13 16.79Q48.73 16.27 48.73 15.46L48.73 15.46Q48.73 14.83 48.36 14.44Q47.99 14.04 47.44 13.82Q46.89 13.61 45.92 13.36L45.92 13.36Q44.69 13.03 43.93 12.70Q43.16 12.37 42.62 11.66Q42.08 10.96 42.08 9.79L42.08 9.79Q42.08 8.71 42.62 7.90Q43.16 7.09 44.14 6.66Q45.11 6.23 46.39 6.23L46.39 6.23Q48.20 6.23 49.37 7.14Q50.53 8.05 50.65 9.63L50.65 9.63L48.38 9.63Q48.33 8.95 47.74 8.46Q47.14 7.97 46.17 7.97L46.17 7.97Q45.29 7.97 44.73 8.42Q44.17 8.87 44.17 9.72L44.17 9.72Q44.17 10.30 44.52 10.67Q44.87 11.03 45.41 11.25Q45.95 11.47 46.89 11.72L46.89 11.72Q48.13 12.06 48.92 12.40Q49.70 12.74 50.25 13.46Q50.80 14.17 50.80 15.35L50.80 15.35Q50.80 16.31 50.28 17.15Q49.77 18.00 48.79 18.51Q47.81 19.03 46.48 19.03L46.48 19.03ZM52.58 6.39L61.31 6.39L61.31 8.06L57.98 8.06L57.98 18.90L55.93 18.90L55.93 8.06L52.58 8.06L52.58 6.39ZM72.32 18.90L69.88 18.90L67.00 13.90L65.43 13.90L65.43 18.90L63.38 18.90L63.38 6.39L67.70 6.39Q69.14 6.39 70.14 6.89Q71.14 7.40 71.63 8.24Q72.13 9.09 72.13 10.13L72.13 10.13Q72.13 11.36 71.42 12.36Q70.70 13.36 69.23 13.72L69.23 13.72L72.32 18.90ZM65.43 8.06L65.43 12.26L67.70 12.26Q68.85 12.26 69.44 11.68Q70.02 11.11 70.02 10.13L70.02 10.13Q70.02 9.16 69.44 8.61Q68.87 8.06 67.70 8.06L67.70 8.06L65.43 8.06ZM74.74 6.39L76.79 6.39L76.79 14.36Q76.79 15.79 77.54 16.51Q78.28 17.23 79.61 17.23L79.61 17.23Q80.96 17.23 81.71 16.51Q82.46 15.79 82.46 14.36L82.46 14.36L82.46 6.39L84.51 6.39L84.51 14.33Q84.51 15.86 83.84 16.92Q83.18 17.98 82.06 18.50Q80.95 19.03 79.60 19.03L79.60 19.03Q78.25 19.03 77.14 18.50Q76.03 17.98 75.38 16.92Q74.74 15.86 74.74 14.33L74.74 14.33L74.74 6.39ZM86.49 12.62Q86.49 10.78 87.35 9.32Q88.20 7.87 89.67 7.05Q91.13 6.23 92.88 6.23L92.88 6.23Q94.88 6.23 96.44 7.21Q97.99 8.19 98.69 9.99L98.69 9.99L96.23 9.99Q95.74 9.00 94.88 8.51Q94.01 8.03 92.88 8.03L92.88 8.03Q91.64 8.03 90.67 8.59Q89.69 9.14 89.15 10.19Q88.60 11.23 88.60 12.62L88.60 12.62Q88.60 14.00 89.15 15.05Q89.69 16.09 90.67 16.66Q91.64 17.23 92.88 17.23L92.88 17.23Q94.01 17.23 94.88 16.74Q95.74 16.25 96.23 15.26L96.23 15.26L98.69 15.26Q97.99 17.06 96.44 18.04Q94.88 19.01 92.88 19.01L92.88 19.01Q91.12 19.01 89.66 18.19Q88.20 17.37 87.35 15.91Q86.49 14.45 86.49 12.62L86.49 12.62ZM100.40 12.62Q100.40 10.78 101.26 9.32Q102.11 7.87 103.58 7.05Q105.05 6.23 106.79 6.23L106.79 6.23Q108.79 6.23 110.35 7.21Q111.91 8.19 112.61 9.99L112.61 9.99L110.14 9.99Q109.66 9.00 108.79 8.51Q107.93 8.03 106.79 8.03L106.79 8.03Q105.55 8.03 104.58 8.59Q103.61 9.14 103.06 10.19Q102.51 11.23 102.51 12.62L102.51 12.62Q102.51 14.00 103.06 15.05Q103.61 16.09 104.58 16.66Q105.55 17.23 106.79 17.23L106.79 17.23Q107.93 17.23 108.79 16.74Q109.66 16.25 110.14 15.26L110.14 15.26L112.61 15.26Q111.91 17.06 110.35 18.04Q108.79 19.01 106.79 19.01L106.79 19.01Q105.03 19.01 103.57 18.19Q102.11 17.37 101.26 15.91Q100.40 14.45 100.40 12.62L100.40 12.62ZM115.00 6.39L117.05 6.39L117.05 18.90L115.00 18.90L115.00 6.39ZM125.46 19.03Q123.71 19.03 122.25 18.21Q120.78 17.39 119.93 15.92Q119.07 14.45 119.07 12.62L119.07 12.62Q119.07 10.78 119.93 9.32Q120.78 7.87 122.25 7.05Q123.71 6.23 125.46 6.23L125.46 6.23Q127.22 6.23 128.69 7.05Q130.16 7.87 131.00 9.32Q131.85 10.78 131.85 12.62L131.85 12.62Q131.85 14.45 131.00 15.92Q130.16 17.39 128.69 18.21Q127.22 19.03 125.46 19.03L125.46 19.03ZM125.46 17.24Q126.70 17.24 127.67 16.68Q128.65 16.11 129.20 15.06Q129.74 14.00 129.74 12.62L129.74 12.62Q129.74 11.23 129.20 10.19Q128.65 9.14 127.67 8.59Q126.70 8.03 125.46 8.03L125.46 8.03Q124.22 8.03 123.25 8.59Q122.27 9.14 121.73 10.19Q121.18 11.23 121.18 12.62L121.18 12.62Q121.18 14.00 121.73 15.06Q122.27 16.11 123.25 16.68Q124.22 17.24 125.46 17.24L125.46 17.24ZM144.14 6.37L144.14 18.90L142.09 18.90L135.92 9.56L135.92 18.90L133.87 18.90L133.87 6.37L135.92 6.37L142.09 15.70L142.09 6.37L144.14 6.37ZM153.76 8.05L148.90 8.05L148.90 11.72L153.22 11.72L153.22 13.39L148.90 13.39L148.90 17.23L153.76 17.23L153.76 18.90L146.84 18.90L146.84 6.37L153.76 6.37L153.76 8.05ZM160.40 19.03Q159.14 19.03 158.13 18.59Q157.12 18.14 156.55 17.33Q155.97 16.52 155.97 15.44L155.97 15.44L158.17 15.44Q158.24 16.25 158.81 16.78Q159.37 17.30 160.40 17.30L160.40 17.30Q161.46 17.30 162.05 16.79Q162.65 16.27 162.65 15.46L162.65 15.46Q162.65 14.83 162.28 14.44Q161.91 14.04 161.36 13.82Q160.81 13.61 159.84 13.36L159.84 13.36Q158.62 13.03 157.85 12.70Q157.09 12.37 156.55 11.66Q156.01 10.96 156.01 9.79L156.01 9.79Q156.01 8.71 156.55 7.90Q157.09 7.09 158.06 6.66Q159.03 6.23 160.31 6.23L160.31 6.23Q162.13 6.23 163.29 7.14Q164.45 8.05 164.57 9.63L164.57 9.63L162.31 9.63Q162.25 8.95 161.66 8.46Q161.06 7.97 160.09 7.97L160.09 7.97Q159.21 7.97 158.65 8.42Q158.09 8.87 158.09 9.72L158.09 9.72Q158.09 10.30 158.45 10.67Q158.80 11.03 159.34 11.25Q159.88 11.47 160.81 11.72L160.81 11.72Q162.05 12.06 162.84 12.40Q163.62 12.74 164.17 13.46Q164.72 14.17 164.72 15.35L164.72 15.35Q164.72 16.31 164.21 17.15Q163.69 18.00 162.71 18.51Q161.73 19.03 160.40 19.03L160.40 19.03Z" transform="translate(0, 0)"></path></g></svg> <svg y="388.1" viewBox="3.7899999618530273 18.8700008392334 164.12001037597656 39.209999084472656" x="205.44" height="39.209999084472656" width="164.12001037597656" style="overflow: visible;"><g fill="#3F63C8" fill-opacity="1" style=""><path d="M11.49 19.36L11.49 51.64L24.14 51.64L24.14 57.75L3.79 57.75L3.79 19.36L11.49 19.36ZM55.11 57.75L52.58 50.44L37.29 50.44L34.76 57.75L26.68 57.75L40.48 19.30L49.45 19.30L63.25 57.75L55.11 57.75ZM39.38 44.27L50.49 44.27L44.94 28.21L39.38 44.27ZM90.36 19.36L98.94 19.36L85.97 44.38L85.97 57.75L78.27 57.75L78.27 44.38L65.23 19.36L73.92 19.36L82.17 36.91L90.36 19.36ZM101.53 38.50Q101.53 32.84 104.09 28.35Q106.64 23.87 111.07 21.37Q115.50 18.87 121.00 18.87L121.00 18.87Q127.43 18.87 132.27 22.16Q137.11 25.46 139.04 31.29L139.04 31.29L130.19 31.29Q128.86 28.54 126.47 27.17Q124.08 25.79 120.94 25.79L120.94 25.79Q117.59 25.79 114.98 27.36Q112.36 28.93 110.91 31.79Q109.45 34.65 109.45 38.50L109.45 38.50Q109.45 42.30 110.91 45.18Q112.36 48.07 114.98 49.64Q117.59 51.20 120.94 51.20L120.94 51.20Q124.08 51.20 126.47 49.80Q128.86 48.40 130.19 45.65L130.19 45.65L139.04 45.65Q137.11 51.53 132.30 54.81Q127.49 58.08 121.00 58.08L121.00 58.08Q115.50 58.08 111.07 55.58Q106.64 53.08 104.09 48.62Q101.53 44.16 101.53 38.50L101.53 38.50ZM167.91 25.58L153.34 25.58L153.34 35.20L166.26 35.20L166.26 41.30L153.34 41.30L153.34 51.48L167.91 51.48L167.91 57.75L145.64 57.75L145.64 19.30L167.91 19.30L167.91 25.58Z" transform="translate(0, 0)"></path></g></svg></svg>