<svg width="645" height="386" viewBox="0 0 645 386" fill="none" xmlns="http://www.w3.org/2000/svg">
<g clip-path="url(#clip0_1_2)">
<g clip-path="url(#clip1_1_2)">
<path d="M74.1418 236.952V149.137L148.774 105.229L223.407 149.137V209.612L246.549 223.264V135.521L148.774 78L51 135.521V250.568L125.63 294.473V267.244L74.1418 236.952Z" fill="#3F63C8"/>
<path d="M223.407 236.859V236.952L171.916 267.244V146.976L148.774 134.318V259.19V280.857V290.052V308.089L246.549 250.568V250.511L223.407 236.859Z" fill="#DE3A3A"/>
</g>
<g clip-path="url(#clip2_1_2)">
<path d="M308.553 143.814V197.437H329.175V207.587H296V143.814H308.553ZM379.664 207.587L375.539 195.444H350.613L346.488 207.587H333.316L355.813 143.714H370.437L392.934 207.587H379.664ZM354.02 185.194H372.132L363.084 158.515L354.02 185.194ZM437.13 143.814H451.117L429.973 185.377V207.587H417.42V185.377L396.162 143.814H410.328L423.778 172.968L437.13 143.814ZM455.339 175.609C455.339 169.341 456.73 163.721 459.513 158.748C462.284 153.787 466.077 149.922 470.892 147.153C475.706 144.384 481.103 143 487.08 143C494.068 143 500.193 144.822 505.453 148.465C510.713 152.12 514.392 157.175 516.49 163.632H502.062C500.616 160.586 498.595 158.305 495.997 156.788C493.4 155.26 490.395 154.495 486.982 154.495C483.341 154.495 480.103 155.365 477.266 157.103C474.419 158.842 472.207 161.295 470.631 164.463C469.044 167.63 468.251 171.345 468.251 175.609C468.251 179.817 469.044 183.516 470.631 186.706C472.207 189.906 474.419 192.376 477.266 194.115C480.103 195.842 483.341 196.706 486.982 196.706C490.395 196.706 493.4 195.931 495.997 194.38C498.595 192.83 500.616 190.532 502.062 187.487H516.49C514.392 193.998 510.729 199.071 505.502 202.703C500.274 206.324 494.134 208.135 487.08 208.135C481.103 208.135 475.706 206.751 470.892 203.982C466.077 201.213 462.284 197.36 459.513 192.42C456.73 187.481 455.339 181.877 455.339 175.609ZM563.554 154.147H539.802V170.127H560.865V180.26H539.802V197.171H563.554V207.587H527.249V143.714H563.554V154.147Z" fill="#3F63C8"/>
</g>
<g clip-path="url(#clip3_1_2)">
<path d="M296.057 233.352C296.057 231.314 296.519 229.487 297.443 227.87C298.377 226.264 299.638 225.007 301.225 224.099C302.823 223.191 304.572 222.737 306.474 222.737C308.637 222.737 310.566 223.279 312.262 224.365C313.957 225.45 315.185 226.989 315.946 228.983H311.919C311.398 227.887 310.664 227.067 309.718 226.524C308.784 225.993 307.702 225.727 306.474 225.727C305.116 225.727 303.909 226.037 302.855 226.657C301.801 227.266 300.975 228.152 300.377 229.315C299.779 230.467 299.481 231.812 299.481 233.352C299.481 234.88 299.779 236.226 300.377 237.388C300.975 238.54 301.801 239.432 302.855 240.063C303.909 240.694 305.116 241.01 306.474 241.01C307.702 241.01 308.784 240.739 309.718 240.196C310.664 239.653 311.398 238.834 311.919 237.737H315.946C315.185 239.731 313.957 241.27 312.262 242.355C310.566 243.43 308.637 243.967 306.474 243.967C304.551 243.967 302.795 243.513 301.209 242.605C299.633 241.696 298.377 240.434 297.443 238.817C296.519 237.2 296.057 235.378 296.057 233.352ZM329.151 244C327.249 244 325.505 243.546 323.918 242.638C322.32 241.73 321.059 240.462 320.136 238.834C319.201 237.206 318.734 235.378 318.734 233.352C318.734 231.314 319.201 229.487 320.136 227.87C321.059 226.264 322.32 225.007 323.918 224.099C325.505 223.191 327.249 222.737 329.151 222.737C331.064 222.737 332.819 223.191 334.417 224.099C336.014 225.007 337.269 226.264 338.182 227.87C339.106 229.487 339.568 231.314 339.568 233.352C339.568 235.378 339.106 237.206 338.182 238.834C337.269 240.462 336.014 241.73 334.417 242.638C332.819 243.546 331.064 244 329.151 244ZM329.151 241.026C330.499 241.026 331.699 240.716 332.754 240.096C333.819 239.465 334.65 238.568 335.248 237.405C335.835 236.231 336.128 234.88 336.128 233.352C336.128 231.812 335.835 230.467 335.248 229.315C334.65 228.152 333.819 227.266 332.754 226.657C331.699 226.037 330.499 225.727 329.151 225.727C327.803 225.727 326.602 226.037 325.548 226.657C324.483 227.266 323.657 228.152 323.07 229.315C322.472 230.467 322.173 231.812 322.173 233.352C322.173 234.88 322.472 236.231 323.07 237.405C323.657 238.568 324.483 239.465 325.548 240.096C326.602 240.716 327.803 241.026 329.151 241.026ZM359.604 222.969V243.784H356.262L346.203 228.269V243.784H342.861V222.969H346.203L356.262 238.468V222.969H359.604ZM370.738 244C369.369 244 368.135 243.756 367.038 243.269C365.94 242.771 365.076 242.073 364.446 241.176C363.826 240.279 363.516 239.232 363.516 238.036H367.087C367.173 238.933 367.521 239.675 368.13 240.262C368.749 240.838 369.619 241.126 370.738 241.126C371.89 241.126 372.787 240.844 373.428 240.279C374.08 239.703 374.406 238.967 374.406 238.07C374.406 237.372 374.205 236.807 373.803 236.375C373.401 235.932 372.901 235.589 372.303 235.345C371.706 235.113 370.88 234.858 369.825 234.581C368.489 234.216 367.407 233.85 366.581 233.485C365.744 233.119 365.032 232.543 364.446 231.757C363.859 230.982 363.565 229.946 363.565 228.651C363.565 227.455 363.859 226.408 364.446 225.511C365.032 224.614 365.858 223.927 366.923 223.451C367.978 222.975 369.2 222.737 370.592 222.737C372.559 222.737 374.178 223.241 375.45 224.249C376.71 225.256 377.406 226.635 377.536 228.385H373.836C373.781 227.632 373.434 226.984 372.792 226.441C372.14 225.899 371.287 225.627 370.233 225.627C369.276 225.627 368.494 225.876 367.885 226.375C367.277 226.873 366.972 227.593 366.972 228.534C366.972 229.177 367.163 229.703 367.543 230.112C367.923 230.511 368.407 230.832 368.994 231.076C369.581 231.32 370.385 231.58 371.407 231.857C372.754 232.233 373.857 232.61 374.716 232.986C375.564 233.363 376.286 233.95 376.884 234.747C377.482 235.533 377.781 236.58 377.781 237.887C377.781 238.95 377.498 239.947 376.933 240.877C376.379 241.818 375.569 242.571 374.504 243.136C373.439 243.712 372.184 244 370.738 244ZM380.683 223.003H394.915V225.777H389.486V243.784H386.144V225.777H380.683V223.003ZM412.864 243.784H408.886L404.191 235.478H401.631V243.784H398.289V223.003H405.332C406.897 223.003 408.223 223.279 409.31 223.833C410.396 224.398 411.206 225.146 411.739 226.076C412.282 227.017 412.554 228.064 412.554 229.215C412.554 230.578 412.168 231.812 411.396 232.92C410.614 234.027 409.424 234.78 407.826 235.179L412.864 243.784ZM401.631 225.777V232.754H405.332C406.582 232.754 407.527 232.433 408.168 231.79C408.799 231.159 409.114 230.301 409.114 229.215C409.114 228.141 408.799 227.3 408.168 226.69C407.549 226.081 406.603 225.777 405.332 225.777H401.631ZM416.809 223.003H420.151V236.242C420.151 237.826 420.558 239.016 421.373 239.814C422.178 240.611 423.303 241.01 424.748 241.01C426.215 241.01 427.356 240.611 428.171 239.814C428.987 239.016 429.394 237.826 429.394 236.242V223.003H432.736V236.192C432.736 237.887 432.372 239.321 431.644 240.495C430.927 241.669 429.959 242.544 428.742 243.12C427.536 243.707 426.199 244 424.732 244C423.264 244 421.928 243.707 420.721 243.12C419.515 242.544 418.559 241.669 417.852 240.495C417.157 239.321 416.809 237.887 416.809 236.192V223.003ZM435.964 233.352C435.964 231.314 436.431 229.487 437.366 227.87C438.29 226.264 439.551 225.007 441.148 224.099C442.735 223.191 444.479 222.737 446.381 222.737C448.555 222.737 450.489 223.279 452.185 224.365C453.869 225.45 455.092 226.989 455.853 228.983H451.843C451.31 227.887 450.576 227.067 449.642 226.524C448.696 225.993 447.609 225.727 446.381 225.727C445.034 225.727 443.833 226.037 442.778 226.657C441.713 227.266 440.887 228.152 440.3 229.315C439.703 230.467 439.404 231.812 439.404 233.352C439.404 234.88 439.703 236.226 440.3 237.388C440.887 238.54 441.713 239.432 442.778 240.063C443.833 240.694 445.034 241.01 446.381 241.01C447.609 241.01 448.696 240.739 449.642 240.196C450.576 239.653 451.31 238.834 451.843 237.737H455.853C455.092 239.731 453.869 241.27 452.185 242.355C450.489 243.43 448.555 243.967 446.381 243.967C444.468 243.967 442.719 243.513 441.132 242.605C439.545 241.696 438.29 240.434 437.366 238.817C436.431 237.2 435.964 235.378 435.964 233.352ZM458.641 233.352C458.641 231.314 459.108 229.487 460.043 227.87C460.966 226.264 462.227 225.007 463.825 224.099C465.422 223.191 467.167 222.737 469.058 222.737C471.231 222.737 473.166 223.279 474.861 224.365C476.557 225.45 477.785 226.989 478.546 228.983H474.519C473.997 227.887 473.264 227.067 472.318 226.524C471.384 225.993 470.297 225.727 469.058 225.727C467.71 225.727 466.509 226.037 465.455 226.657C464.401 227.266 463.575 228.152 462.977 229.315C462.379 230.467 462.08 231.812 462.08 233.352C462.08 234.88 462.379 236.226 462.977 237.388C463.575 238.54 464.401 239.432 465.455 240.063C466.509 240.694 467.71 241.01 469.058 241.01C470.297 241.01 471.384 240.739 472.318 240.196C473.264 239.653 473.997 238.834 474.519 237.737H478.546C477.785 239.731 476.557 241.27 474.861 242.355C473.166 243.43 471.231 243.967 469.058 243.967C467.145 243.967 465.395 243.513 463.808 242.605C462.222 241.696 460.966 240.434 460.043 238.817C459.108 237.2 458.641 235.378 458.641 233.352ZM482.442 223.003H485.784V243.784H482.442V223.003ZM499.494 244C497.592 244 495.848 243.546 494.261 242.638C492.664 241.73 491.403 240.462 490.479 238.834C489.544 237.206 489.077 235.378 489.077 233.352C489.077 231.314 489.544 229.487 490.479 227.87C491.403 226.264 492.664 225.007 494.261 224.099C495.848 223.191 497.592 222.737 499.494 222.737C501.407 222.737 503.162 223.191 504.76 224.099C506.358 225.007 507.613 226.264 508.526 227.87C509.45 229.487 509.912 231.314 509.912 233.352C509.912 235.378 509.45 237.206 508.526 238.834C507.613 240.462 506.358 241.73 504.76 242.638C503.162 243.546 501.407 244 499.494 244ZM499.494 241.026C500.842 241.026 502.043 240.716 503.097 240.096C504.162 239.465 504.994 238.568 505.591 237.405C506.178 236.231 506.472 234.88 506.472 233.352C506.472 231.812 506.178 230.467 505.591 229.315C504.994 228.152 504.162 227.266 503.097 226.657C502.043 226.037 500.842 225.727 499.494 225.727C498.147 225.727 496.946 226.037 495.892 226.657C494.826 227.266 494 228.152 493.414 229.315C492.816 230.467 492.517 231.812 492.517 233.352C492.517 234.88 492.816 236.231 493.414 237.405C494 238.568 494.826 239.465 495.892 240.096C496.946 240.716 498.147 241.026 499.494 241.026ZM529.947 222.969V243.784H526.605L516.547 228.269V243.784H513.205V222.969H516.547L526.605 238.468V222.969H529.947ZM545.63 225.76H537.707V231.857H544.75V234.631H537.707V241.01H545.63V243.784H534.349V222.969H545.63V225.76ZM556.455 244C555.085 244 553.852 243.756 552.754 243.269C551.656 242.771 550.798 242.073 550.178 241.176C549.548 240.279 549.233 239.232 549.233 238.036H552.819C552.895 238.933 553.243 239.675 553.863 240.262C554.471 240.838 555.335 241.126 556.455 241.126C557.607 241.126 558.503 240.844 559.145 240.279C559.797 239.703 560.123 238.967 560.123 238.07C560.123 237.372 559.922 236.807 559.52 236.375C559.118 235.932 558.618 235.589 558.02 235.345C557.422 235.113 556.596 234.858 555.542 234.581C554.216 234.216 553.135 233.85 552.298 233.485C551.472 233.119 550.765 232.543 550.178 231.757C549.592 230.982 549.298 229.946 549.298 228.651C549.298 227.455 549.592 226.408 550.178 225.511C550.765 224.614 551.586 223.927 552.64 223.451C553.694 222.975 554.917 222.737 556.308 222.737C558.286 222.737 559.905 223.241 561.166 224.249C562.427 225.256 563.123 226.635 563.253 228.385H559.569C559.503 227.632 559.15 226.984 558.509 226.441C557.857 225.899 557.004 225.627 555.949 225.627C554.993 225.627 554.211 225.876 553.602 226.375C552.993 226.873 552.689 227.593 552.689 228.534C552.689 229.177 552.885 229.703 553.276 230.112C553.656 230.511 554.14 230.832 554.727 231.076C555.314 231.32 556.112 231.58 557.123 231.857C558.471 232.233 559.574 232.61 560.433 232.986C561.28 233.363 562.003 233.95 562.601 234.747C563.199 235.533 563.497 236.58 563.497 237.887C563.497 238.95 563.22 239.947 562.666 240.877C562.101 241.818 561.286 242.571 560.221 243.136C559.156 243.712 557.9 244 556.455 244Z" fill="#DE3A3A"/>
</g>
</g>
<defs>
<clipPath id="clip0_1_2">
<rect width="645" height="386" fill="white"/>
</clipPath>
<clipPath id="clip1_1_2">
<rect width="195.549" height="230.099" fill="white" transform="translate(51 78)"/>
</clipPath>
<clipPath id="clip2_1_2">
<rect width="267.554" height="65.1351" fill="white" transform="translate(296 143)"/>
</clipPath>
<clipPath id="clip3_1_2">
<rect width="267.44" height="21.2632" fill="white" transform="translate(296.057 222.737)"/>
</clipPath>
</defs>
</svg>
